<?xml version="1.0"?>
<svg version="1.1" xmlns="http://www.w3.org/2000/svg" width="400px" height="200px"
    style="border: dashed 2px #aaa">
    <path fill="#25a15d"
        d="M155.144,106.24l-1.196-4.992s-2.444-0.832-5.824-0.832c-5.46,0-8.58,4.056-8.58,12.74c0,8.424,3.38,11.96,8.84,11.96c5.2,0,9.88-3.64,9.88-3.64l2.86,4.68s-5.46,5.668-13.624,5.668c-10.556,0-16.64-6.344-16.64-18.408c0-12.22,6.864-19.5,17.524-19.5c6.292,0,12.116,2.444,12.116,2.444l-0.26,9.88l-5.096,0z M193.44252,106.24l-1.196-4.992s-2.444-0.832-5.824-0.832c-5.46,0-8.58,4.056-8.58,12.74c0,8.424,3.38,11.96,8.84,11.96c5.2,0,9.88-3.64,9.88-3.64l2.86,4.68s-5.46,5.668-13.624,5.668c-10.556,0-16.64-6.344-16.64-18.408c0-12.22,6.864-19.5,17.524-19.5c6.292,0,12.116,2.444,12.116,2.444l-0.26,9.88l-5.096,0z M232.78104,138.844l-10.504-7.072c-9.568-0.624-14.82-7.02-14.82-18.616c0-11.856,6.76-19.24,17.524-19.24c10.66,0,16.536,6.864,16.536,18.46c0,8.996-4.108,15.652-10.816,18.252c3.12,1.976,6.864,4.992,10.036,4.992c1.664,0,4.784-1.82,4.784-1.82c0.936,1.352,1.82,2.756,2.756,4.16c0,0-5.46,3.64-8.84,3.64c-2.236,0-4.368-1.196-6.656-2.756z M224.72104,100.416c-5.824,0-8.684,3.744-8.684,12.48c0,8.32,2.6,12.48,8.164,12.48c5.876,0,8.736-4.056,8.736-12.74c0-8.32-2.496-12.22-8.216-12.22z M274.19956,105.72l-1.3-4.472s-2.444-0.832-5.876-0.832c-5.564,0-8.684,4.056-8.684,12.74c0,8.424,3.276,12.064,8.84,12.064c2.704,0,5.72-0.936,5.72-0.936l0-6.552l-3.9-1.196l0-4.264l14.976-0.26l0,4.524l-3.536,1.196l0,10.608s-5.356,3.484-14.144,3.484c-10.556,0-16.64-6.344-16.64-18.408c0-12.22,6.864-19.5,17.524-19.5c6.292,0,12.116,2.444,12.116,2.444l-0.26,9.36l-4.836,0z" />
    <path fill="#" d="" />
</svg>